<?xml version="1.0" standalone="no"?>
<!DOCTYPE svg PUBLIC "-//W3C//DTD SVG 20010904//EN"
 "http://www.w3.org/TR/2001/REC-SVG-20010904/DTD/svg10.dtd">
<svg version="1.0" xmlns="http://www.w3.org/2000/svg"
 width="1280.000000pt" height="1280.000000pt" viewBox="0 0 1280.000000 1280.000000"
 preserveAspectRatio="xMidYMid meet">
<metadata>
Created by potrace 1.15, written by Peter Selinger 2001-2017
</metadata>
<g transform="translate(0.000000,1280.000000) scale(0.100000,-0.100000)"
fill="#E55050" stroke="none">
<path d="M3970 10651 c-506 -43 -991 -228 -1382 -528 -522 -400 -843 -984
-924 -1679 -22 -188 -15 -572 14 -759 108 -698 409 -1303 987 -1981 141 -167
574 -600 785 -786 311 -275 440 -380 1360 -1113 294 -234 545 -444 717 -598
182 -164 457 -446 562 -577 99 -123 221 -307 271 -408 19 -39 38 -71 41 -71 4
-1 9 9 13 21 9 36 142 254 216 354 107 144 234 285 426 474 283 279 487 451
1224 1036 843 669 1172 954 1555 1345 765 782 1159 1488 1288 2309 29 187 32
664 4 840 -89 565 -309 1012 -682 1385 -393 394 -904 642 -1485 721 -170 24
-492 23 -655 0 -711 -102 -1273 -464 -1623 -1046 -105 -174 -204 -398 -254
-577 -12 -46 -25 -83 -28 -83 -3 0 -16 37 -28 83 -117 415 -377 830 -692 1100
-332 286 -723 459 -1179 522 -137 19 -401 26 -531 16z"/>
</g>
</svg>
